HIERARCHY
ROOT Hips
{
	OFFSET 56.001900 -2.742996 96.802597
	CHANNELS 6 Xposition Yposition Zposition Xrotation Yrotation Zrotation
	JOINT spine
	{
		OFFSET 0.000000 -0.458068 7.965683
		CHANNELS 3 Xrotation Yrotation Zrotation
		JOINT spine1
		{
			OFFSET 0.000000 -0.000002 10.243103
			CHANNELS 3 Xrotation Yrotation Zrotation
			JOINT spine2
			{
				OFFSET 0.000000 -0.000001 9.814751
				CHANNELS 3 Xrotation Yrotation Zrotation
				JOINT Neck
				{
					OFFSET 0.000000 -1.201384 25.198601
					CHANNELS 3 Xrotation Yrotation Zrotation
					JOINT Head
					{
						OFFSET 0.000000 -0.000001 7.613144
						CHANNELS 3 Xrotation Yrotation Zrotation
						End Site
						{
							OFFSET 0.000000 6.077327 18.428101
						}
					}
				}
				JOINT RightShoulder
				{
					OFFSET -4.132698 0.575449 10.599205
					CHANNELS 3 Xrotation Yrotation Zrotation
					JOINT RightArm
					{
						OFFSET 0.000000 -0.000002 13.901794
						CHANNELS 3 Xrotation Yrotation Zrotation
						JOINT RightArmRoll
						{
							OFFSET 0.000000 -0.000001 7.017883
							CHANNELS 3 Xrotation Yrotation Zrotation
							JOINT RightForeArm
							{
								OFFSET 0.000000 -0.000003 20.440598
								CHANNELS 3 Xrotation Yrotation Zrotation
								JOINT RightForeArmRoll
								{
									OFFSET 0.000000 -0.000001 7.875153
									CHANNELS 3 Xrotation Yrotation Zrotation
									JOINT RightHand
									{
										OFFSET 0.000000 -0.000003 15.803696
										CHANNELS 3 Xrotation Yrotation Zrotation
										End Site
										{
											OFFSET 0.000000 0.000000 0.100006
										}
									}
								}
							}
						}
					}
				}
				JOINT LeftShoulder
				{
					OFFSET 4.132698 0.575449 10.599205
					CHANNELS 3 Xrotation Yrotation Zrotation
					JOINT LeftArm
					{
						OFFSET 0.000000 -0.000002 13.901794
						CHANNELS 3 Xrotation Yrotation Zrotation
						JOINT LeftArmRoll
						{
							OFFSET 0.000000 -0.000001 7.017883
							CHANNELS 3 Xrotation Yrotation Zrotation
							JOINT LeftForeArm
							{
								OFFSET 0.000000 -0.000003 20.440598
								CHANNELS 3 Xrotation Yrotation Zrotation
								JOINT LeftForeArmRoll
								{
									OFFSET 0.000000 -0.000001 7.875153
									CHANNELS 3 Xrotation Yrotation Zrotation
									JOINT LeftHand
									{
										OFFSET 0.000000 -0.000003 15.803696
										CHANNELS 3 Xrotation Yrotation Zrotation
										End Site
										{
											OFFSET 0.000000 0.000000 0.100006
										}
									}
								}
							}
						}
					}
				}
			}
		}
	}
	JOINT RightUpLeg
	{
		OFFSET -7.060478 1.086100 -1.294701
		CHANNELS 3 Xrotation Yrotation Zrotation
		JOINT RightUpLegRoll
		{
			OFFSET 0.000000 -0.000003 18.530800
			CHANNELS 3 Xrotation Yrotation Zrotation
			JOINT RightLeg
			{
				OFFSET 0.000000 0.000004 -22.947601
				CHANNELS 3 Xrotation Yrotation Zrotation
				JOINT RightLegRoll
				{
					OFFSET 0.000000 -0.000004 23.022598
					CHANNELS 3 Xrotation Yrotation Zrotation
					JOINT RightFoot
					{
						OFFSET 0.000000 -0.000003 19.162506
						CHANNELS 3 Xrotation Yrotation Zrotation
						JOINT RightToeBase
						{
							OFFSET 0.000000 -0.000003 16.018799
							CHANNELS 3 Xrotation Yrotation Zrotation
							End Site
							{
								OFFSET 0.006790 0.894206 7.757828
							}
						}
					}
				}
			}
		}
	}
	JOINT LeftUpLeg
	{
		OFFSET 7.060478 1.086100 -1.294701
		CHANNELS 3 Xrotation Yrotation Zrotation
		JOINT LeftUpLegRoll
		{
			OFFSET 0.000000 -0.000003 18.530899
			CHANNELS 3 Xrotation Yrotation Zrotation
			JOINT LeftLeg
			{
				OFFSET 0.000000 -0.000004 22.947502
				CHANNELS 3 Xrotation Yrotation Zrotation
				JOINT LeftLegRoll
				{
					OFFSET 0.000000 -0.000004 23.235504
					CHANNELS 3 Xrotation Yrotation Zrotation
					JOINT LeftFoot
					{
						OFFSET 0.000000 -0.000003 18.949600
						CHANNELS 3 Xrotation Yrotation Zrotation
						JOINT LeftToeBase
						{
							OFFSET 0.000000 -0.000003 16.018799
							CHANNELS 3 Xrotation Yrotation Zrotation
							End Site
							{
								OFFSET -0.030430 0.894206 7.757828
							}
						}
					}
				}
			}
		}
	}
}
MOTION
Frames: 10
Frame Time: 0.041667
59.047894 -10.058716 96.948196 -5.421775 -0.405096 3.921411 -0.389677 -0.276333 -0.294490 3.222050 -0.569917 -0.584765 4.867118 -0.576934 -0.577540 17.363396 0.426888 -0.591952 14.517898 -2.693989 0.019250 -22.274367 -77.057627 -25.940655 88.724157 -71.664005 105.729628 0.000001 -0.000001 0.000002 9.045933 -4.716011 -0.562311 -0.000002 0.000005 -3.010010 -5.000186 -7.999442 0.000074 -4.849461 59.391336 5.770633 -31.653047 113.817671 23.550754 0.000001 0.000001 -0.000001 2.329255 5.710211 0.680061 0.000000 -0.000012 3.013439 -5.000209 7.999312 -0.000087 3.394060 -178.105324 3.200477 -179.999991 0.000005 -1.202996 173.140159 -2.107811 -0.585512 -0.000001 0.000002 0.082916 68.839796 6.922199 2.074888 25.456873 -7.347798 -0.000008 3.012561 176.024480 -1.405472 -0.000005 -0.000005 -1.183520 -7.416723 2.138415 0.331803 -0.000002 -0.000000 -0.109616 69.474423 -6.901677 -2.069381 25.456931 7.351999 -0.000006 
59.056393 -10.072413 96.946999 -5.406454 -0.399054 3.921352 -0.388815 -0.278464 -0.295584 3.223753 -0.574151 -0.587550 4.868812 -0.581199 -0.580298 17.337918 0.435226 -0.578664 14.511205 -2.670436 0.027063 -22.210061 -77.036447 -25.872185 88.907473 -71.647851 105.910231 0.000000 -0.000002 0.000000 9.077701 -4.698953 -0.561780 -0.000001 0.000005 -3.010010 -5.000190 -7.999441 0.000074 -4.911105 59.396247 5.843482 -31.739869 113.841980 23.666494 -0.000000 -0.000000 0.000000 2.399401 5.721764 0.677203 -0.000000 -0.000012 3.013440 -5.000208 7.999313 -0.000087 3.316352 -178.115173 3.182999 -179.999991 0.000005 -1.201002 173.031805 -2.098392 -0.590414 -0.000001 0.000002 0.085629 68.875587 6.920941 2.074812 25.456877 -7.347798 -0.000008 2.943018 176.024234 -1.386871 -0.000005 -0.000004 -1.183510 -7.507040 2.122439 0.334619 -0.000003 -0.000000 -0.113120 69.533382 -6.900785 -2.067550 25.456931 7.351999 -0.000007 
59.051792 -10.061217 96.950699 -5.390773 -0.392787 3.921144 -0.388100 -0.280610 -0.296730 3.225165 -0.578449 -0.590476 4.870226 -0.585526 -0.583200 17.312936 0.443817 -0.565371 14.504414 -2.646437 0.034774 -22.144431 -77.014850 -25.802288 89.093151 -71.631732 106.094168 -0.000001 -0.000001 0.000002 9.109385 -4.680981 -0.561280 -0.000004 0.000005 -3.010010 -5.000186 -7.999442 0.000074 -4.975899 59.401404 5.920063 -31.827309 113.865380 23.782336 -0.000001 -0.000001 0.000001 2.469952 5.733014 0.674331 0.000001 -0.000012 3.013440 -5.000209 7.999313 -0.000087 3.236057 -178.125992 3.165547 -179.999991 0.000005 -1.200005 172.918957 -2.087960 -0.595308 -0.000001 0.000002 0.088503 68.913904 6.919616 2.074869 25.456878 -7.347798 -0.000008 2.871421 176.024985 -1.366976 -0.000005 -0.000005 -1.183500 -7.600581 2.105386 0.337436 -0.000003 -0.000001 -0.116817 69.596363 -6.899821 -2.065655 25.456933 7.351999 -0.000008 
59.051292 -10.060017 96.948799 -5.374861 -0.386363 3.920829 -0.387483 -0.282768 -0.297914 3.226378 -0.582791 -0.593498 4.871439 -0.589901 -0.586198 17.288457 0.452581 -0.552071 14.497408 -2.622139 0.042411 -22.077726 -76.992822 -25.731250 89.279964 -71.615701 106.279936 0.000000 -0.000001 0.000003 9.141008 -4.662358 -0.560820 -0.000004 0.000005 -3.010010 -5.000190 -7.999442 0.000074 -5.042890 59.406738 5.999263 -31.914366 113.888780 23.897396 -0.000001 -0.000001 -0.000001 2.540765 5.744046 0.671443 0.000001 -0.000012 3.013439 -5.000209 7.999313 -0.000087 3.153954 -178.135828 3.148213 -179.999991 0.000005 -1.197997 172.802939 -2.078513 -0.600404 -0.000000 0.000002 0.091490 68.954093 6.918227 2.074896 25.456878 -7.347799 -0.000009 2.798394 176.024739 -1.346274 -0.000005 -0.000005 -1.183500 -7.696389 2.087581 0.340232 -0.000002 -0.000001 -0.120650 69.661994 -6.898815 -2.063789 25.456935 7.351999 -0.000006 
59.051495 -10.060215 96.951408 -5.358793 -0.379851 3.920449 -0.386926 -0.284931 -0.299117 3.227470 -0.587157 -0.596579 4.872543 -0.594300 -0.589252 17.264280 0.461440 -0.538767 14.490419 -2.597655 0.050011 -22.010631 -76.970618 -25.659783 89.467330 -71.599685 106.466626 -0.000000 -0.000000 0.000002 9.172607 -4.643373 -0.560380 -0.000003 0.000005 -3.010010 -5.000190 -7.999441 0.000073 -5.111172 59.412209 6.079974 -32.001260 113.912235 24.012024 0.000000 0.000000 0.000001 2.611742 5.754969 0.668531 0.000001 -0.000012 3.013439 -5.000208 7.999313 -0.000087 3.070815 -178.145677 3.130922 -179.999991 0.000005 -1.196999 172.685105 -2.069040 -0.605540 -0.000001 0.000002 0.094541 68.995354 6.916819 2.074954 25.456880 -7.347797 -0.000009 2.724554 176.025491 -1.325028 -0.000005 -0.000005 -1.183500 -7.793473 2.069345 0.342988 -0.000002 -0.000000 -0.124558 69.729230 -6.897822 -2.061830 25.456935 7.351999 -0.000006 
59.031094 -10.027714 96.947189 -5.342716 -0.373316 3.920048 -0.386380 -0.287095 -0.300327 3.228543 -0.591531 -0.599672 4.873607 -0.598705 -0.592322 17.240099 0.470315 -0.525454 14.483423 -2.573141 0.057610 -21.943718 -76.948392 -25.588481 89.654948 -71.583360 106.653704 0.000001 -0.000001 0.000001 9.204184 -4.624292 -0.559967 -0.000001 0.000005 -3.010008 -5.000191 -7.999442 0.000073 -5.179769 59.417496 6.161063 -32.087990 113.935738 24.126438 0.000001 0.000001 0.000001 2.682764 5.765857 0.665595 -0.000000 -0.000012 3.013440 -5.000207 7.999313 -0.000087 2.987413 -178.156510 3.113630 -179.999991 0.000005 -1.195005 172.566847 -2.058573 -0.610511 -0.000000 0.000002 0.097608 69.036943 6.915427 2.074797 25.456875 -7.347798 -0.000008 2.650515 176.026242 -1.303670 -0.000005 -0.000005 -1.183500 -7.890888 2.051001 0.345688 -0.000003 -0.000000 -0.128487 69.796802 -6.896819 -2.059848 25.456931 7.351998 -0.000006 
59.048397 -10.027214 96.945900 -5.326688 -0.366826 3.919679 -0.385809 -0.289257 -0.301526 3.229666 -0.595891 -0.602737 4.874741 -0.603098 -0.595362 17.215722 0.479126 -0.512134 14.476432 -2.548712 0.065233 -21.877316 -76.926235 -25.517720 89.841310 -71.566838 106.839322 0.000002 -0.000001 0.000001 9.235792 -4.605398 -0.559574 -0.000001 0.000006 -3.010010 -5.000191 -7.999442 0.000074 -5.247764 59.422803 6.241450 -32.175764 113.958441 24.242139 0.000001 -0.000001 0.000001 2.753706 5.776808 0.662630 -0.000001 -0.000012 3.013440 -5.000206 7.999312 -0.000087 2.904523 -178.166345 3.096418 -179.999991 0.000005 -1.193994 172.449449 -2.049094 -0.615552 -0.000001 0.000002 0.100643 69.077883 6.914028 2.074879 25.456880 -7.347799 -0.000009 2.576874 176.027007 -1.282561 -0.000005 -0.000004 -1.183490 -7.987661 2.032872 0.348320 -0.000003 -0.000000 -0.132376 69.863662 -6.895806 -2.057912 25.456936 7.351999 -0.000006 
59.036697 -10.028814 96.945999 -5.310835 -0.360449 3.919373 -0.385162 -0.291411 -0.302699 3.230938 -0.600221 -0.605732 4.876005 -0.607459 -0.598332 17.191147 0.487792 -0.498805 14.469554 -2.524503 0.072917 -21.811782 -76.904208 -25.447871 90.026401 -71.549906 107.023224 0.000001 -0.000002 0.000000 9.267425 -4.586973 -0.559195 -0.000000 0.000005 -3.010011 -5.000183 -7.999442 0.000073 -5.314187 59.427844 6.319980 -32.261193 113.982935 24.355591 0.000000 0.000000 -0.000000 2.824461 5.787920 0.659630 -0.000001 -0.000012 3.013441 -5.000208 7.999312 -0.000088 2.822936 -178.177219 3.079164 -179.999991 0.000005 -1.191999 172.334333 -2.039623 -0.620462 -0.000001 0.000002 0.103597 69.117594 6.912705 2.074853 25.456878 -7.347798 -0.000009 2.504260 176.027786 -1.262076 -0.000005 -0.000005 -1.183490 -8.082803 2.015267 0.350869 -0.000002 -0.000001 -0.136171 69.928549 -6.894857 -2.055912 25.456933 7.351998 -0.000007 
59.027695 -10.022213 96.944908 -5.295270 -0.354250 3.919197 -0.384408 -0.293553 -0.303829 3.232441 -0.604501 -0.608613 4.877509 -0.611769 -0.601188 17.166065 0.496235 -0.485468 14.462772 -2.500650 0.080695 -21.748016 -76.882686 -25.379894 90.209327 -71.532585 107.204293 -0.000000 -0.000001 0.000001 9.299130 -4.569275 -0.558820 -0.000002 0.000006 -3.010011 -5.000187 -7.999441 0.000074 -5.378111 59.432536 6.395554 -32.347670 114.006628 24.470708 0.000001 0.000001 0.000001 2.894899 5.799272 0.656596 0.000000 -0.000012 3.013441 -5.000206 7.999313 -0.000087 2.743406 -178.188079 3.061929 -179.999991 0.000005 -1.191003 172.222851 -2.029177 -0.625085 -0.000001 0.000002 0.106423 69.155208 6.911373 2.074961 25.456875 -7.347798 -0.000009 2.433272 176.028564 -1.242597 -0.000005 -0.000005 -1.183480 -8.175376 1.998519 0.353336 -0.000003 -0.000000 -0.139809 69.990280 -6.893946 -2.054115 25.456935 7.351999 -0.000007 
59.023491 -10.005216 96.943802 -5.280085 -0.348297 3.919172 -0.383488 -0.295678 -0.304901 3.234253 -0.608711 -0.611341 4.879322 -0.616008 -0.603890 17.140286 0.504375 -0.472119 14.456106 -2.477279 0.088591 -21.685965 -76.861533 -25.313750 90.388886 -71.514662 107.380840 0.000001 -0.000001 0.000001 9.330923 -4.552597 -0.558430 -0.000003 0.000006 -3.010010 -5.000190 -7.999441 0.000075 -5.438603 59.436832 6.467055 -32.432002 114.032153 24.584125 -0.000000 -0.000000 0.000001 2.964919 5.810945 0.653516 -0.000000 -0.000012 3.013440 -5.000207 7.999313 -0.000087 2.666713 -178.198952 3.044683 -179.999991 0.000005 -1.188994 172.116327 -2.018754 -0.630478 -0.000000 0.000002 0.109072 69.189905 6.910178 2.074873 25.456878 -7.347797 -0.000008 2.364530 176.028373 -1.224515 -0.000005 -0.000004 -1.183469 -8.264392 1.982949 0.355713 -0.000002 -0.000000 -0.143236 70.047702 -6.893090 -2.052499 25.456935 7.351997 -0.000006 
